<?xml version="1.0" encoding="UTF-8" standalone="no"?>
<!-- Created with Inkscape (http://www.inkscape.org/) -->

<svg
   width="28mm"
   height="28mm"
   viewBox="0 0 28 28"
   version="1.1"
   id="svg5"
   sodipodi:docname="massey_logo.svg"
   inkscape:version="1.1.2 (0a00cf5339, 2022-02-04)"
   xmlns:inkscape="http://www.inkscape.org/namespaces/inkscape"
   xmlns:sodipodi="http://sodipodi.sourceforge.net/DTD/sodipodi-0.dtd"
   xmlns="http://www.w3.org/2000/svg"
   xmlns:svg="http://www.w3.org/2000/svg">
  <sodipodi:namedview
     id="namedview7"
     pagecolor="#ffffff"
     bordercolor="#666666"
     borderopacity="1.0"
     inkscape:pageshadow="2"
     inkscape:pageopacity="0.0"
     inkscape:pagecheckerboard="0"
     inkscape:document-units="mm"
     showgrid="false"
     width="28.19906mm"
     inkscape:zoom="8"
     inkscape:cx="41.3125"
     inkscape:cy="43.875"
     inkscape:window-width="1732"
     inkscape:window-height="911"
     inkscape:window-x="2832"
     inkscape:window-y="192"
     inkscape:window-maximized="0"
     inkscape:current-layer="layer1" />
  <defs
     id="defs2" />
  <g
     inkscape:label="Layer 1"
     inkscape:groupmode="layer"
     id="layer1"
     transform="translate(-82.748322,-102.11546)"
     sodipodi:insensitive="true">
    <path
       style="fill:#000000;stroke-width:0.0417763"
       d="m 95.510986,128.62135 c -0.06893,-0.009 -0.332121,-0.0368 -0.584868,-0.0612 -1.691409,-0.16343 -3.378735,-0.63156 -4.752196,-1.31844 -0.540664,-0.2704 -1.159153,-0.66042 -1.159153,-0.73097 0,-0.0265 0.163542,-0.55388 0.363426,-1.17196 0.424652,-1.31312 0.417375,-1.30376 0.762654,-0.98079 0.85056,0.7956 2.490122,1.39598 4.597276,1.68346 0.793164,0.10821 3.229021,0.10897 4.031414,0.001 2.061251,-0.2767 3.721741,-0.88258 4.611701,-1.68273 0.35358,-0.3179 0.33824,-0.33686 0.76365,0.94378 0.20227,0.60889 0.36802,1.14061 0.36833,1.18161 10e-4,0.17413 -1.44168,0.9457 -2.43602,1.30254 -0.56947,0.20437 -1.57184,0.47627 -2.158812,0.5856 -1.017955,0.1896 -1.587696,0.23826 -2.945231,0.25157 -0.735263,0.007 -1.39324,0.006 -1.462171,-0.004 z m -7.861688,-2.62485 c -0.193735,-0.0871 -0.260757,-0.25713 -0.310272,-0.78721 -0.08315,-0.89014 0.116318,-1.78549 0.397775,-1.78549 0.01242,0 0.01216,0.0521 -5.81e-4,0.11585 -0.03118,0.15591 0.07715,0.24837 0.352106,0.30052 0.212941,0.0404 0.301184,0.0339 1.171751,-0.0855 0.192361,-0.0264 0.587148,-0.0405 0.877302,-0.0314 0.585489,0.0185 0.786573,0.0825 1.041599,0.33187 0.395708,0.38688 -0.152077,0.45136 -0.848256,0.0999 -0.206793,-0.10441 -0.425603,-0.18946 -0.486244,-0.18899 -0.21644,0.002 -0.274995,0.10641 -0.572692,1.02437 -0.211826,0.65318 -0.299676,0.87293 -0.343873,0.86018 -0.198268,-0.0572 -0.336945,-0.0441 -0.570129,0.0541 -0.332236,0.13983 -0.541371,0.16694 -0.708486,0.0918 z m 17.553792,-0.0693 c -0.31068,-0.11904 -0.44762,-0.13365 -0.6063,-0.0647 -0.0509,0.0221 -0.11875,-0.14157 -0.34831,-0.84007 -0.38694,-1.17737 -0.40544,-1.19217 -1.08171,-0.86523 -0.44642,0.21583 -0.78765,0.27883 -0.9298,0.17166 -0.0834,-0.0629 -0.0834,-0.0632 0.003,-0.18114 0.1138,-0.15461 0.47579,-0.37165 0.6747,-0.40453 0.28748,-0.0475 1.07071,-0.0273 1.49426,0.0385 0.5825,0.0905 1.05183,0.0926 1.21818,0.005 0.1533,-0.0803 0.18271,-0.13916 0.13459,-0.26934 -0.0461,-0.12463 0.0227,-0.12184 0.15065,0.006 0.18827,0.18826 0.25119,0.51374 0.25119,1.29939 0,0.76309 -0.0334,0.94223 -0.20599,1.10435 -0.15605,0.1466 -0.37131,0.14646 -0.75487,-4.9e-4 z m -8.857598,-1.0047 c -0.481649,-0.27618 -0.892415,-0.55419 -1.278043,-0.86502 -0.366464,-0.29538 -1.111056,-1.05437 -1.379821,-1.40651 -0.876061,-1.14782 -1.485702,-2.52593 -1.792641,-4.0523 -0.188807,-0.93892 -0.206533,-1.30555 -0.206533,-4.27154 v -2.80988 l 5.065378,0.0106 5.065378,0.0106 0.0129,2.59013 c 0.008,1.66991 -0.004,2.79792 -0.0343,3.175 -0.23591,2.92329 -1.53134,5.40774 -3.638043,6.97728 -0.383828,0.28596 -1.316366,0.85578 -1.400528,0.85578 -0.02214,0 -0.208331,-0.0964 -0.413757,-0.21416 z m 0.9425,-5.75985 c 0.01437,0 0.379111,0.30079 0.810532,0.66842 0.43142,0.36763 0.791513,0.66842 0.800207,0.66842 0.02002,0 -0.0788,-0.25098 -0.467213,-1.18665 -0.170779,-0.41139 -0.302119,-0.75638 -0.291866,-0.76663 0.01025,-0.0103 0.480461,0.0167 1.044906,0.0598 0.564445,0.0431 1.026002,0.0685 1.025682,0.0564 -3.3e-4,-0.0121 -0.395107,-0.26448 -0.877303,-0.56082 -0.482196,-0.29633 -0.875912,-0.55012 -0.874924,-0.56398 9.86e-4,-0.0138 0.398991,-0.2685 0.884452,-0.56589 0.485461,-0.29739 0.865335,-0.54619 0.844175,-0.55289 -0.0212,-0.007 -0.489667,0.0227 -1.041114,0.0653 -0.551448,0.0426 -1.008678,0.0723 -1.016068,0.066 -0.01187,-0.0101 0.724174,-1.83039 0.772259,-1.90981 0.06657,-0.10995 -0.139712,0.0492 -0.821487,0.63375 -0.425074,0.36447 -0.784838,0.65061 -0.799476,0.63588 -0.01464,-0.0147 -0.135415,-0.47447 -0.268395,-1.02163 -0.132981,-0.54717 -0.254614,-0.97016 -0.270296,-0.93997 -0.01568,0.0302 -0.127404,0.46847 -0.248269,0.97396 -0.120866,0.50549 -0.232037,0.94194 -0.247049,0.96988 -0.01768,0.0329 -0.304007,-0.18522 -0.813295,-0.6196 -0.432301,-0.36872 -0.794011,-0.66239 -0.803799,-0.65261 -0.0098,0.01 0.159032,0.44382 0.375155,0.96451 0.216123,0.52069 0.380829,0.95367 0.366013,0.96217 -0.01482,0.009 -0.468722,-0.0199 -1.008681,-0.0631 -0.539959,-0.0432 -1.005709,-0.0738 -1.034999,-0.0679 -0.02929,0.006 0.343058,0.25379 0.827442,0.55104 0.484383,0.29725 0.887519,0.5515 0.895857,0.56499 0.0083,0.0135 -0.37811,0.26806 -0.858774,0.56571 -0.480664,0.29765 -0.873934,0.55108 -0.873934,0.56319 0,0.0121 0.418285,-0.0109 0.929523,-0.0512 0.511238,-0.0403 0.979146,-0.0686 1.039797,-0.0629 l 0.110275,0.0103 -0.395125,0.95451 c -0.217319,0.52499 -0.388483,0.96116 -0.380366,0.96928 0.0081,0.008 0.368289,-0.28718 0.800383,-0.65622 0.432093,-0.36904 0.799695,-0.65482 0.816893,-0.63506 0.0172,0.0198 0.14128,0.4871 0.275736,1.03854 l 0.244467,1.00263 0.251274,-1.03396 c 0.138201,-0.56868 0.263033,-1.03396 0.277405,-1.03396 z m -0.556991,1.24479 c -0.01233,-0.0528 -0.08338,-0.47193 -0.157876,-0.93147 -0.0745,-0.45954 -0.14106,-0.84255 -0.14791,-0.85114 -0.0069,-0.009 -0.317794,0.27749 -0.690986,0.63573 -0.373193,0.35824 -0.685293,0.64459 -0.693556,0.63632 -0.0083,-0.008 0.175328,-0.39536 0.407981,-0.86023 l 0.423007,-0.8452 -0.138561,0.0244 c -0.383573,0.0676 -1.71779,0.23789 -1.734326,0.22135 -0.01045,-0.0105 0.349015,-0.21012 0.798822,-0.44371 0.449807,-0.23359 0.817338,-0.43738 0.816735,-0.45287 -6.02e-4,-0.0155 -0.37615,-0.22442 -0.83455,-0.4643 -0.458399,-0.23988 -0.827577,-0.44203 -0.820395,-0.44921 0.0072,-0.007 0.425027,0.0509 0.928546,0.12909 0.503519,0.0782 0.923198,0.13475 0.932621,0.12571 0.0094,-0.009 -0.157174,-0.37844 -0.370216,-0.8209 -0.213041,-0.44246 -0.397148,-0.83267 -0.409126,-0.86713 -0.01198,-0.0345 0.289039,0.24544 0.668926,0.622 l 0.690705,0.68468 0.04444,-0.22514 c 0.02444,-0.12382 0.08339,-0.45072 0.130999,-0.72644 0.11745,-0.68023 0.171758,-0.94924 0.18829,-0.93271 0.0076,0.008 0.08193,0.42658 0.165095,0.93099 0.08317,0.50441 0.155172,0.92067 0.160015,0.92502 0.0048,0.004 0.318994,-0.28923 0.698114,-0.6524 0.37912,-0.36318 0.695114,-0.65463 0.702208,-0.64767 0.0071,0.007 -0.176289,0.39067 -0.407518,0.85269 -0.369296,0.73788 -0.410006,0.84003 -0.334798,0.84003 0.09609,0 1.54885,-0.19853 1.71116,-0.23385 0.190668,-0.0415 0.03744,0.0534 -0.751973,0.4657 -0.425074,0.22201 -0.785848,0.41575 -0.801719,0.43055 -0.01587,0.0148 0.346182,0.22425 0.804564,0.46544 0.458382,0.24119 0.81582,0.44439 0.794306,0.45156 -0.02151,0.007 -0.416583,-0.0445 -0.877932,-0.11476 -0.461349,-0.0703 -0.865869,-0.1278 -0.898934,-0.1278 -0.04082,0 0.07249,0.27485 0.35307,0.85642 0.227253,0.47102 0.400331,0.85641 0.384618,0.85641 -0.01571,0 -0.324199,-0.2952 -0.685525,-0.65599 -0.361325,-0.3608 -0.664085,-0.64749 -0.672799,-0.63709 -0.0087,0.0104 -0.0871,0.43249 -0.17419,0.93798 -0.08709,0.5055 -0.162973,0.92466 -0.168629,0.93147 -0.0057,0.007 -0.02037,-0.0308 -0.0327,-0.0836 z m 4.235269,-1.7596 c 0.0668,-0.20272 0.16267,-0.55051 0.21313,-0.77286 0.0884,-0.38951 0.0923,-0.50309 0.10666,-3.10929 l 0.0149,-2.70502 h -4.558644 -4.558641 l 0.01872,2.62147 c 0.01993,2.79121 0.01896,2.77681 0.24209,3.61257 0.09669,0.36217 0.32898,1.00836 0.353626,0.98371 0.0079,-0.008 -0.02148,-0.15466 -0.06527,-0.32616 -0.140061,-0.54857 -0.250195,-1.25722 -0.282193,-1.81576 -0.01711,-0.29871 -0.02608,-1.52545 -0.01993,-2.7261 l 0.01118,-2.18301 4.312669,0.0106 4.312673,0.0106 v 2.61102 c 0,2.83421 -0.011,3.00722 -0.25144,3.95506 -0.0562,0.22138 -0.11189,0.44192 -0.12384,0.49009 -0.0455,0.1834 0.15836,-0.30489 0.27431,-0.657 z m -6.609068,6.34463 c -0.01037,-0.0104 -0.239523,-0.0754 -0.50922,-0.14443 -0.829758,-0.21249 -1.379878,-0.57411 -1.653051,-1.08664 -0.07378,-0.13843 -0.145346,-0.34621 -0.159028,-0.46174 -0.01368,-0.11552 -0.02992,-0.21004 -0.03609,-0.21004 -0.0062,0 -0.109619,0.0511 -0.229891,0.11345 -0.272797,0.14154 -0.559161,0.14674 -0.855839,0.0156 -0.269893,-0.11935 -0.424702,-0.26833 -0.546458,-0.52587 -0.130915,-0.27693 -0.130815,-0.36454 3.76e-4,-0.33161 0.211731,0.0531 0.47748,-0.18314 0.65348,-0.58102 0.102197,-0.23103 0.123199,-0.71621 0.04169,-0.96318 -0.02831,-0.0858 -0.04082,-0.1666 -0.0278,-0.17961 0.04284,-0.0429 0.585176,0.3094 0.859329,0.55814 0.505817,0.45892 0.851432,0.99667 1.365059,2.12392 0.403594,0.88576 0.450657,0.96187 0.833147,1.34729 0.18812,0.18956 0.328787,0.34465 0.312594,0.34465 -0.01619,0 -0.03793,-0.008 -0.0483,-0.0189 z m 5.119308,-0.32227 c 0.325836,-0.32583 0.368917,-0.39042 0.65047,-0.97521 0.16584,-0.34444 0.39492,-0.81848 0.50907,-1.05342 0.37467,-0.77116 0.88857,-1.39554 1.46174,-1.77596 0.12934,-0.0858 0.28637,-0.17556 0.34895,-0.19935 0.10625,-0.0404 0.11194,-0.037 0.086,0.0516 -0.0672,0.22944 -0.0959,0.57153 -0.0645,0.76995 0.078,0.49329 0.45608,0.94306 0.73412,0.87328 0.13119,-0.0329 0.13129,0.0547 3.7e-4,0.33161 -0.25516,0.53975 -0.89507,0.77348 -1.40017,0.51143 -0.23289,-0.12083 -0.22976,-0.12246 -0.27353,0.14192 -0.0439,0.26554 -0.26516,0.64635 -0.50029,0.86124 -0.31208,0.28522 -0.73576,0.49455 -1.286931,0.63584 -0.259008,0.0664 -0.503165,0.13315 -0.54257,0.14834 -0.03941,0.0152 0.08538,-0.1294 0.277301,-0.32132 z m -9.72827,-2.46365 c -0.169903,-0.35446 -0.482121,-0.73375 -0.735839,-0.89392 -0.201492,-0.12719 -0.55191,-0.22827 -0.791382,-0.22827 -0.227339,0 -0.593265,0.10014 -0.777792,0.21286 -0.170193,0.10396 -0.183063,0.10127 -0.183063,-0.0383 0,-0.24109 0.135328,-0.5242 0.356093,-0.74497 0.265445,-0.26544 0.609609,-0.39076 1.158299,-0.42177 0.422859,-0.0239 0.407875,0.001 0.284836,-0.47973 -0.09345,-0.36538 -0.282561,-0.7608 -0.461123,-0.96417 -0.06858,-0.0781 -0.112585,-0.15412 -0.09779,-0.16891 0.05702,-0.057 0.517679,-0.0231 0.770992,0.0568 0.46103,0.14542 0.858725,0.52014 1.168133,1.10065 0.36303,0.68111 0.321417,1.2032 -0.158926,1.99389 -0.139803,0.23013 -0.266714,0.50092 -0.305581,0.65201 l -0.06648,0.25841 z m 13.85526,0.0994 c -0.0311,-0.15057 -0.12275,-0.35766 -0.245,-0.55353 -0.10742,-0.17212 -0.25316,-0.43515 -0.32386,-0.5845 -0.11535,-0.24365 -0.12859,-0.31231 -0.1289,-0.66842 -3.3e-4,-0.38102 0.007,-0.41106 0.1733,-0.75197 0.32051,-0.65546 0.72222,-1.05437 1.21982,-1.21133 0.25331,-0.0799 0.71397,-0.11386 0.77099,-0.0568 0.0148,0.0148 -0.0292,0.0908 -0.0978,0.16891 -0.17177,0.19564 -0.35637,0.57454 -0.45722,0.93847 -0.13713,0.49483 -0.14553,0.47972 0.28093,0.50553 0.53982,0.0327 0.89882,0.16448 1.16237,0.42677 0.21674,0.21569 0.35202,0.50003 0.35202,0.73987 0,0.13959 -0.0129,0.14228 -0.18306,0.0383 -0.55341,-0.33805 -1.29739,-0.25649 -1.7859,0.19579 -0.24097,0.22309 -0.47253,0.5606 -0.57949,0.84464 -0.0863,0.22906 -0.10513,0.22528 -0.15821,-0.0317 z m -15.709909,-2.64166 c -0.614049,-0.22091 -1.083038,-0.66419 -1.284,-1.21361 -0.17359,-0.47459 -0.192081,-0.60908 -0.226649,-1.64839 -0.03516,-1.05719 -0.07314,-1.31241 -0.231199,-1.55364 -0.03478,-0.0531 -0.05799,-0.0965 -0.05156,-0.0965 0.0064,0 0.07736,0.0195 0.157624,0.0434 0.216404,0.0643 0.821714,0.0528 1.098676,-0.0208 0.286218,-0.0761 0.76953,-0.3112 1.177858,-0.57294 0.699261,-0.44823 1.031652,-0.57759 1.48413,-0.57759 0.290787,0 0.668394,0.0679 0.666273,0.11984 -5.94e-4,0.0145 -0.09773,0.092 -0.215867,0.17215 -0.276665,0.18778 -0.415656,0.38335 -0.53006,0.74584 -0.116839,0.3702 -0.22128,0.52395 -0.515169,0.75839 l -0.235463,0.18782 0.398085,0.20485 c 0.46533,0.23946 0.822367,0.5508 0.994674,0.86739 0.166905,0.30666 0.195275,0.78418 0.06682,1.12467 -0.07936,0.21036 -0.343948,0.5817 -0.41429,0.58145 -0.01544,-4e-5 -0.08256,-0.10437 -0.149154,-0.23181 -0.143721,-0.27506 -0.378224,-0.49049 -0.693561,-0.63717 -0.433715,-0.20175 -1.332139,-0.12586 -1.465758,0.12381 -0.11444,0.21383 1.25e-4,1.04786 0.208747,1.51945 0.09487,0.21446 0.08284,0.21964 -0.240154,0.10344 z m 17.541619,-0.10034 c 0.14324,-0.32382 0.24831,-0.81394 0.24831,-1.15832 0,-0.38597 -0.0432,-0.44586 -0.40347,-0.55917 -0.16885,-0.0531 -0.31728,-0.0673 -0.55091,-0.0526 -0.55413,0.0348 -1.00928,0.31338 -1.24313,0.76092 -0.0666,0.12744 -0.13323,0.23176 -0.14808,0.23181 -0.0501,1.7e-4 -0.28515,-0.29338 -0.3771,-0.47105 -0.0664,-0.12833 -0.0963,-0.27486 -0.10961,-0.53788 -0.0162,-0.32067 -0.006,-0.38754 0.0873,-0.59218 0.18947,-0.41387 0.53081,-0.721 1.14343,-1.02889 0.30197,-0.15176 0.3132,-0.16239 0.22268,-0.21084 -0.14985,-0.0802 -0.45949,-0.38044 -0.52702,-0.51101 -0.0337,-0.0653 -0.1049,-0.24737 -0.15813,-0.40472 -0.1175,-0.34729 -0.2556,-0.53596 -0.52712,-0.72011 -0.11313,-0.0767 -0.20617,-0.15159 -0.20677,-0.16637 -0.004,-0.0972 0.77229,-0.15544 1.07072,-0.0803 0.2566,0.0646 0.63929,0.25821 1.15822,0.58593 0.44906,0.2836 0.8598,0.47386 1.17948,0.54637 0.25042,0.0568 0.82292,0.0577 1.01212,0.002 0.1237,-0.0367 0.13619,-0.0333 0.11009,0.0299 -0.19047,0.46114 -0.19843,0.51535 -0.23134,1.57522 -0.0352,1.13282 -0.067,1.32539 -0.30023,1.81727 -0.17945,0.37845 -0.54685,0.7377 -0.95046,0.92938 -0.17233,0.0818 -0.37398,0.1614 -0.44812,0.1768 l -0.1348,0.028 0.084,-0.18978 z m -18.250411,-4.81244 c -0.480459,-0.23942 -0.774674,-0.63101 -0.83092,-1.10592 -0.01344,-0.11346 -0.02885,-0.20629 -0.03424,-0.20629 -0.0054,0 -0.101472,0.0513 -0.213507,0.1139 -0.112034,0.0626 -0.278819,0.15195 -0.370632,0.19844 -0.185492,0.0939 -0.334997,0.32133 -0.377787,0.5746 -0.01463,0.0866 -0.04229,0.15747 -0.06146,0.15747 -0.01917,0 -0.110205,-0.0881 -0.2023,-0.1959 -0.365395,-0.42747 -0.545207,-1.0189 -0.466594,-1.53469 0.09596,-0.62964 0.44636,-1.04204 1.0652,-1.2537 0.0754,-0.0258 0.07131,-0.0354 -0.04716,-0.11037 -0.149272,-0.0945 -0.308658,-0.3114 -0.427457,-0.58166 -0.102332,-0.2328 -0.189644,-0.71745 -0.154486,-0.85753 l 0.02621,-0.10444 0.113949,0.0803 c 0.08987,0.0633 0.211058,0.0847 0.573488,0.10122 0.303671,0.0138 0.556555,0.0516 0.745567,0.1112 0.157315,0.0496 0.297135,0.0791 0.310711,0.0656 0.01358,-0.0136 0.02468,-0.14346 0.02468,-0.28863 0,-0.36383 -0.162291,-0.65186 -0.495537,-0.87947 -0.222549,-0.152 -0.234861,-0.1686 -0.163671,-0.22066 0.149652,-0.10942 0.408384,-0.14859 0.820033,-0.12412 0.566982,0.0337 0.864968,0.14842 1.561869,0.60131 0.937852,0.60947 1.390245,0.80508 1.861985,0.80508 0.133692,0 0.243076,0.016 0.243076,0.0355 0,0.0195 -0.0577,0.11517 -0.128226,0.21252 -0.163784,0.2261 -0.422999,0.34626 -1.042622,0.48331 -0.649392,0.14363 -1.023857,0.3334 -1.399049,0.70899 -0.336497,0.33685 -0.551897,0.71253 -0.696269,1.21436 -0.081,0.28152 -0.09541,0.42811 -0.09433,0.95897 7.23e-4,0.35362 0.0248,0.73274 0.05526,0.87017 0.02969,0.13394 0.04626,0.25125 0.03682,0.26069 -0.0094,0.009 -0.114113,-0.0311 -0.232607,-0.0902 z m 18.975841,-0.0275 c 0.31499,-1.52527 -0.0939,-2.85447 -1.0746,-3.49343 -0.31175,-0.20311 -0.57832,-0.30374 -1.11494,-0.42085 -0.53157,-0.11602 -0.80029,-0.24626 -0.95837,-0.46448 -0.0705,-0.0974 -0.12822,-0.19299 -0.12822,-0.21252 0,-0.0195 0.10938,-0.0355 0.24307,-0.0355 0.4518,0 0.96544,-0.21528 1.76219,-0.73856 0.86211,-0.56621 1.02756,-0.63076 1.71458,-0.66896 0.39516,-0.022 0.46168,-0.015 0.64753,0.0677 0.23356,0.10398 0.24202,0.0827 -0.13666,0.3442 -0.24312,0.1679 -0.40296,0.49171 -0.40296,0.81631 0,0.14359 0.0111,0.27219 0.0247,0.28576 0.0136,0.0136 0.1534,-0.0159 0.31072,-0.0656 0.18901,-0.0596 0.44189,-0.0974 0.74556,-0.1112 0.36243,-0.0165 0.48362,-0.0379 0.57349,-0.10122 l 0.11395,-0.0803 0.0262,0.10444 c 0.0144,0.0574 0.005,0.22642 -0.021,0.37551 -0.0819,0.47054 -0.31143,0.90569 -0.56095,1.06368 -0.11847,0.075 -0.12256,0.0846 -0.0472,0.11037 0.61659,0.21089 0.97515,0.63101 1.06073,1.24287 0.0533,0.38096 -0.005,0.72952 -0.18258,1.09389 -0.13731,0.28155 -0.40965,0.64753 -0.48185,0.64753 -0.0192,0 -0.0468,-0.0709 -0.0615,-0.15747 -0.055,-0.32585 -0.1811,-0.47173 -0.59245,-0.68562 l -0.38061,-0.19791 -0.0288,0.21762 c -0.0677,0.51192 -0.39271,0.91307 -0.91721,1.13223 l -0.16096,0.0673 z M 87.829587,114.4733 c -0.04807,-0.17937 -0.02601,-0.98826 0.03484,-1.2775 0.16465,-0.78273 0.507755,-1.27449 0.928462,-1.33075 0.348763,-0.0466 1.017251,0.28518 1.579615,0.78406 0.395983,0.35128 0.416531,0.39171 0.183121,0.36035 -0.100717,-0.0135 -0.333516,-0.006 -0.517332,0.017 -0.860987,0.10732 -1.52025,0.53013 -1.995324,1.27968 -0.09102,0.14361 -0.170596,0.2611 -0.176838,0.2611 -0.0062,0 -0.02269,-0.0423 -0.03654,-0.094 z m 17.700833,-0.16224 c -0.47822,-0.75465 -1.1352,-1.17696 -1.99838,-1.28455 -0.18382,-0.0229 -0.41411,-0.0309 -0.51176,-0.0178 -0.0977,0.0131 -0.17755,0.0114 -0.17755,-0.004 0,-0.0281 0.33401,-0.34612 0.56877,-0.54148 0.45439,-0.37814 1.10664,-0.65152 1.41597,-0.59349 0.3253,0.061 0.67513,0.53215 0.83955,1.13065 0.0788,0.28695 0.12768,1.32463 0.0695,1.47749 -0.0355,0.0933 -0.0471,0.0838 -0.20614,-0.16711 z m -9.023443,-3.27938 c -0.06935,-0.0284 -0.320545,-0.67096 -0.291684,-0.74617 0.01975,-0.0515 0.120101,-0.063 0.550418,-0.063 0.289444,0 0.560722,0.0184 0.602839,0.041 0.09039,0.0484 0.351619,0.65101 0.319022,0.73595 -0.01782,0.0464 -0.137573,0.0579 -0.577331,0.0553 -0.305166,-0.002 -0.576634,-0.0122 -0.603264,-0.0231 z m -1.408293,-0.35234 c -0.06045,-0.13938 -0.109902,-0.27097 -0.109902,-0.29243 0,-0.0217 0.195578,-0.039 0.440951,-0.039 h 0.44095 l 0.102142,0.23096 c 0.159555,0.36079 0.165987,0.35391 -0.331049,0.35391 h -0.43319 z m 2.85693,0.0573 c -0.180965,-0.4091 -0.197206,-0.38876 0.310379,-0.38876 h 0.445479 l 0.102142,0.23096 c 0.159666,0.36104 0.166402,0.35391 -0.334554,0.35391 h -0.436697 z m -3.798763,-0.0232 c -0.04209,-0.0977 -0.06841,-0.19165 -0.05849,-0.20888 0.0099,-0.0172 0.1492,-0.0313 0.309499,-0.0313 h 0.291453 l 0.08207,0.19146 c 0.04514,0.1053 0.08207,0.1993 0.08207,0.20888 0,0.01 -0.141766,0.0174 -0.315036,0.0174 h -0.315035 z m -0.712323,0.055 c -0.09042,-0.16895 -0.05681,-0.21162 0.16667,-0.21162 0.186891,0 0.214384,0.0117 0.250658,0.10716 0.06503,0.17104 0.05223,0.18527 -0.16667,0.18527 -0.162305,0 -0.216816,-0.0176 -0.250658,-0.0808 z m -8.763663,-0.10766 c -0.523582,-0.3526 -0.846359,-0.81504 -0.846359,-1.21257 0,-0.42336 0.395266,-0.98263 0.740218,-1.04734 0.326727,-0.0613 0.634704,0.0833 0.921314,0.43267 l 0.145669,0.17755 h -0.236844 c -0.747185,0 -1.042487,0.68137 -0.637446,1.47082 0.08411,0.16393 0.147266,0.30372 0.14035,0.31064 -0.0069,0.007 -0.109022,-0.0524 -0.226902,-0.13177 z m 14.469197,-0.0213 c -0.03696,-0.0924 -0.0672,-0.18719 -0.0672,-0.21071 0,-0.0264 0.11609,-0.038 0.302638,-0.0305 0.300047,0.0122 0.303249,0.0135 0.373981,0.1585 0.117263,0.24033 0.107648,0.25065 -0.233431,0.25065 h -0.308787 z m 9.505798,0.13883 c 0.008,-0.0184 0.0805,-0.16474 0.16088,-0.3251 0.13107,-0.26135 0.14622,-0.3266 0.14622,-0.62989 0,-0.30625 -0.0111,-0.3529 -0.11704,-0.4918 -0.15546,-0.2038 -0.32874,-0.28827 -0.65097,-0.31732 l -0.2667,-0.024 0.19451,-0.21604 c 0.48442,-0.53805 1.04382,-0.51257 1.4096,0.0642 0.33221,0.52383 0.24846,1.00502 -0.26245,1.50793 -0.19512,0.19207 -0.64863,0.51115 -0.61405,0.43204 z m -8.60806,-0.18599 c -0.0252,-0.0724 -0.0459,-0.13816 -0.0459,-0.14622 0,-0.008 0.0935,-0.0147 0.20781,-0.0147 0.18787,0 0.21392,0.0118 0.27155,0.12325 0.035,0.0678 0.0637,0.13359 0.0637,0.14622 0,0.0126 -0.10155,0.023 -0.22568,0.023 -0.21558,0 -0.22774,-0.006 -0.27155,-0.13156 z m -6.137288,-0.67263 c -0.107347,-0.17677 -0.152618,-0.39042 -0.09082,-0.42861 0.06752,-0.0417 0.239275,0.13372 0.294384,0.3007 0.08955,0.27133 -0.05957,0.36502 -0.203564,0.12791 z m 0.858533,-0.0209 c -0.145207,-0.1516 -0.239802,-0.3859 -0.239802,-0.59397 0,-0.20203 0.0636,-0.21772 0.217185,-0.0536 0.148785,0.15902 0.239134,0.35127 0.269621,0.5737 0.02304,0.16806 0.01696,0.18871 -0.05555,0.18871 -0.04478,0 -0.130934,-0.0517 -0.191456,-0.11488 z m 1.206643,0.037 c -0.200321,-0.22136 -0.312179,-0.84443 -0.161946,-0.90208 0.171907,-0.066 0.359483,0.34565 0.336451,0.73831 -0.01388,0.23662 -0.06509,0.28467 -0.174505,0.16377 z m 1.862239,0.0277 c -0.06676,-0.0668 -0.06319,-0.18317 0.01356,-0.44162 0.06772,-0.22803 0.240093,-0.4691 0.335424,-0.4691 0.10634,0 0.148417,0.14885 0.101393,0.35869 -0.05345,0.2385 -0.103053,0.33843 -0.241886,0.48728 -0.120949,0.12968 -0.138209,0.13504 -0.208494,0.0648 z m 0.926492,-0.0108 c -0.09056,-0.23599 0.449855,-0.91889 0.604662,-0.76409 0.109168,0.10917 0.01223,0.39144 -0.224357,0.65331 -0.16064,0.17781 -0.335083,0.22863 -0.380305,0.11078 z m -1.943606,-0.15191 c -0.06183,-0.20638 0.0037,-0.67997 0.10868,-0.78491 0.166402,-0.1664 0.311591,0.18371 0.231347,0.55787 -0.08771,0.40897 -0.252544,0.51903 -0.340027,0.22704 z m 2.868338,0.13016 c -0.03608,-0.0584 0.0484,-0.20593 0.221766,-0.38729 0.158033,-0.16532 0.245863,-0.19545 0.283543,-0.0973 0.0722,0.18818 -0.405412,0.64619 -0.505309,0.48455 z m -6.263779,-0.25533 c -0.153142,-0.182 -0.263533,-0.40859 -0.337611,-0.693 -0.07804,-0.29961 -0.07853,-0.38583 -0.0024,-0.41506 0.07793,-0.0299 0.444853,0.15479 0.721412,0.36313 0.119643,0.0901 0.225151,0.16387 0.234462,0.16387 0.0093,0 0.02867,-0.0999 0.04301,-0.22194 0.01435,-0.12207 0.04719,-0.28248 0.07298,-0.35647 0.03856,-0.11061 0.06279,-0.12973 0.136327,-0.10759 0.12906,0.0389 0.47583,0.24433 0.703829,0.41705 l 0.196631,0.14896 0.165298,-0.32877 c 0.09091,-0.18081 0.195105,-0.3535 0.231538,-0.38373 0.08977,-0.0745 0.256863,-0.003 0.5969,0.25397 l 0.26012,0.19688 0.172363,-0.20587 c 0.0948,-0.11322 0.226258,-0.24424 0.292129,-0.29115 l 0.119766,-0.0853 0.166551,0.15047 c 0.0916,0.0828 0.215414,0.23385 0.275135,0.33576 0.05972,0.1019 0.121891,0.18504 0.138155,0.18475 0.01626,-2.9e-4 0.157651,-0.10362 0.314191,-0.22963 0.305114,-0.2456 0.45481,-0.30913 0.547383,-0.2323 0.03193,0.0265 0.106916,0.15137 0.166636,0.27751 l 0.108581,0.22932 0.228257,-0.17233 c 0.125542,-0.0948 0.345171,-0.20873 0.488065,-0.2532 0.322161,-0.10027 0.356268,-0.0753 0.422068,0.30883 l 0.04701,0.27443 0.232312,-0.11603 c 0.3835,-0.19156 0.80018,-0.34417 0.86831,-0.31803 0.10396,0.0399 0.0431,0.36358 -0.11911,0.63318 -0.14461,0.24039 -0.48026,0.63108 -0.51356,0.59778 -0.0102,-0.0102 0.0444,-0.14992 0.12157,-0.31038 0.0771,-0.16046 0.15205,-0.34601 0.16654,-0.41232 l 0.0263,-0.12058 -0.17978,0.0277 c -0.0989,0.0152 -0.29847,0.0667 -0.44354,0.11443 -0.145074,0.0477 -0.272796,0.0777 -0.283826,0.0666 -0.01103,-0.011 -0.06153,-0.10226 -0.112217,-0.20273 -0.08521,-0.1689 -0.103988,-0.18232 -0.248961,-0.1779 -0.08646,0.003 -0.283245,0.0682 -0.438651,0.14622 -0.155018,0.0778 -0.292294,0.14648 -0.305057,0.15265 -0.01276,0.006 -0.06358,-0.0606 -0.112919,-0.1484 -0.198656,-0.35347 -0.257409,-0.36017 -0.733671,-0.0837 l -0.284927,0.16538 -0.244619,-0.23333 c -0.134541,-0.12833 -0.275451,-0.23333 -0.313132,-0.23333 -0.103207,0 -0.234269,0.0774 -0.401684,0.23734 l -0.150671,0.14391 -0.18354,-0.12346 c -0.100947,-0.0679 -0.26368,-0.14733 -0.361629,-0.17651 -0.167503,-0.0499 -0.18453,-0.0471 -0.286428,0.0477 -0.05959,0.0554 -0.165786,0.18537 -0.236,0.28877 -0.07021,0.10339 -0.132898,0.19471 -0.1393,0.20292 -0.0064,0.008 -0.113663,-0.0435 -0.238358,-0.11479 -0.124695,-0.0713 -0.307383,-0.15818 -0.405975,-0.19296 -0.165208,-0.0583 -0.18576,-0.0575 -0.262252,0.0104 -0.04565,0.0405 -0.118279,0.15243 -0.161402,0.24879 l -0.0784,0.1752 -0.218409,-0.10168 c -0.248469,-0.11568 -0.439532,-0.13187 -0.474703,-0.0402 -0.01315,0.0343 0.01469,0.18874 0.06187,0.34329 0.04717,0.15454 0.07966,0.2871 0.07219,0.29457 -0.0075,0.007 -0.06382,-0.0461 -0.125217,-0.11909 z m -3.898706,-0.32005 c -0.0382,-0.0264 -0.0122,-0.0743 0.09755,-0.17983 0.317338,-0.30504 0.434663,-0.65835 0.435276,-1.31081 5.64e-4,-0.59805 0.06815,-1.0118 0.21467,-1.31423 l 0.133733,-0.27604 0.03112,0.28251 c 0.02215,0.20112 0.0856,0.39972 0.220213,0.68931 0.23448,0.50444 0.294547,0.7409 0.266575,1.04938 -0.05394,0.59481 -0.489456,1.02483 -1.088054,1.0743 -0.14245,0.0118 -0.282439,0.005 -0.311085,-0.0146 z m 14.005374,-0.008 c -0.4872,-0.11913 -0.84095,-0.53843 -0.88752,-1.05194 -0.0279,-0.30719 0.0321,-0.5449 0.2623,-1.04023 0.12822,-0.27587 0.19582,-0.48698 0.22073,-0.68931 l 0.0359,-0.29166 0.13528,0.28814 c 0.14505,0.30896 0.21025,0.71649 0.21168,1.32302 0.001,0.6319 0.12184,0.98822 0.4357,1.28992 0.10757,0.1034 0.135,0.15313 0.0975,0.17691 -0.0629,0.04 -0.3391,0.0373 -0.51162,-0.005 z m -14.872369,-0.47769 c -0.378808,-0.12357 -0.475446,-0.17681 -0.877303,-0.48336 -0.705296,-0.53802 -1.393647,-0.55008 -1.731587,-0.0303 l -0.102311,0.15735 -0.0729,-0.17958 c -0.0994,-0.24484 -0.09827,-0.67305 0.0023,-0.89463 0.04295,-0.0946 0.143021,-0.22148 0.222384,-0.28201 0.148496,-0.11327 0.568113,-0.27712 0.70968,-0.27712 0.06387,0 0.0738,-0.0188 0.04968,-0.094 -0.06377,-0.19878 -0.09886,-0.39284 -0.100103,-0.55353 -0.002,-0.25418 -0.154333,-0.83712 -0.296878,-1.1358 -0.07219,-0.15126 -0.239146,-0.38633 -0.385558,-0.54287 l -0.258235,-0.27608 0.42491,0.0205 c 0.58351,0.0281 0.784011,0.12825 1.313788,0.65638 0.435023,0.43368 0.547133,0.61094 0.686127,1.08489 l 0.09041,0.30829 0.100111,-0.18123 c 0.112989,-0.20454 0.469582,-0.51003 0.872974,-0.74785 0.301335,-0.17766 0.413683,-0.28524 0.524409,-0.50214 l 0.07464,-0.14621 0.09673,0.21188 c 0.110077,0.2411 0.199656,0.79434 0.160664,0.99224 -0.04671,0.23708 -0.114511,0.37495 -0.450564,0.91619 -0.423948,0.6828 -0.545798,1.01699 -0.544487,1.49334 5.39e-4,0.1953 0.02208,0.40679 0.04787,0.46998 0.04624,0.1133 0.04474,0.11486 -0.108738,0.11302 -0.08559,-10e-4 -0.287223,-0.0448 -0.448061,-0.0973 z m 15.718439,-0.18286 c 0.11271,-0.53892 -0.0311,-1.02661 -0.53255,-1.80652 -0.16659,-0.25909 -0.34073,-0.57664 -0.38698,-0.70567 -0.0758,-0.21142 -0.0797,-0.27074 -0.0394,-0.60016 0.0257,-0.21018 0.0872,-0.45877 0.14478,-0.58487 l 0.10011,-0.21931 0.0746,0.14621 c 0.11073,0.2169 0.22308,0.32448 0.52441,0.50214 0.4034,0.23782 0.75999,0.54331 0.87298,0.74785 l 0.10011,0.18123 0.0894,-0.30829 c 0.13511,-0.46579 0.2903,-0.7097 0.70972,-1.11545 0.51179,-0.4951 0.72606,-0.59885 1.29118,-0.62515 l 0.42491,-0.0198 -0.25421,0.26651 c -0.15166,0.159 -0.30718,0.3777 -0.38555,0.54219 -0.14731,0.30916 -0.29947,0.89063 -0.29992,1.14605 -1.6e-4,0.0926 -0.0269,0.27121 -0.0595,0.39682 -0.0326,0.1256 -0.0561,0.2299 -0.0522,0.23178 0.004,0.002 0.13401,0.0369 0.28923,0.0779 0.32402,0.0855 0.58034,0.25368 0.68681,0.45067 0.097,0.1794 0.10406,0.78321 0.0116,0.98826 l -0.0638,0.14147 -0.11543,-0.17443 c -0.14586,-0.22041 -0.32047,-0.32698 -0.59111,-0.3608 -0.29201,-0.0365 -0.64703,0.0631 -0.92688,0.26003 -0.63591,0.44746 -0.76838,0.52413 -1.07151,0.62013 -0.17925,0.0568 -0.38754,0.10322 -0.46286,0.10322 h -0.13695 z m -9.564417,-0.41904 c -0.130765,-0.0855 -0.238827,-0.16479 -0.240139,-0.17628 -0.0013,-0.0115 0.07945,-0.0726 0.179479,-0.13578 0.237669,-0.15014 0.577404,-0.51178 0.699485,-0.74458 0.07446,-0.14199 0.09736,-0.25434 0.09861,-0.4838 0.0015,-0.27263 -0.0096,-0.31281 -0.126874,-0.45777 -0.07068,-0.0874 -0.185643,-0.18223 -0.255476,-0.21072 -0.124953,-0.051 -0.129087,-0.0485 -0.260426,0.15415 -0.13979,0.21573 -0.390842,0.44242 -0.617249,0.55735 -0.229862,0.11668 -0.250772,0.0989 -0.251956,-0.21413 -6.22e-4,-0.1644 -0.03005,-0.35315 -0.07058,-0.45264 l -0.06952,-0.17065 -0.405543,-0.0855 c -0.593007,-0.12497 -0.701682,-0.17874 -0.73651,-0.36439 -0.01573,-0.0839 -0.01729,-0.18812 -0.0035,-0.2317 0.01383,-0.0436 0.179332,-0.16759 0.367778,-0.27556 0.51837,-0.29702 1.355328,-0.88335 1.644422,-1.15201 0.277488,-0.25788 0.598096,-0.43896 0.995905,-0.5625 0.277553,-0.0862 0.533918,-0.31103 0.919285,-0.8062 0.242573,-0.31169 0.330224,-0.379 0.401162,-0.30806 0.03691,0.0369 -0.04276,0.15436 -0.331836,0.4892 -0.386779,0.44801 -0.549958,0.70326 -0.549958,0.86027 0,0.21962 0.209332,0.44831 0.724792,0.79183 0.26261,0.17502 0.344078,0.25507 0.40906,0.40197 0.06789,0.15349 0.07386,0.21049 0.03653,0.34913 -0.150592,0.55925 -0.697511,0.65526 -1.186564,0.20829 -0.123915,-0.11325 -0.242886,-0.20591 -0.264381,-0.20591 -0.02149,0 -0.07996,0.0435 -0.129916,0.0967 -0.07309,0.0778 -0.09083,0.14727 -0.09083,0.35556 0,0.77427 0.698369,1.20288 1.637664,1.00508 0.641123,-0.13501 1.302386,-0.7026 1.540135,-1.32195 0.122808,-0.31993 0.125987,-0.78051 0.0075,-1.08475 -0.04676,-0.12006 -0.171603,-0.33962 -0.277424,-0.48791 -0.105821,-0.1483 -0.192402,-0.2894 -0.192402,-0.31357 0,-0.0242 0.04959,-0.0564 0.110199,-0.0716 0.08624,-0.0216 0.127168,-0.006 0.188238,0.0723 0.117856,0.15098 0.516514,0.97466 0.656656,1.35675 0.302733,0.82537 0.507078,1.96898 0.507078,2.83783 v 0.47667 l -0.177549,0.0469 c -0.09765,0.0258 -0.308394,0.11313 -0.468315,0.19405 l -0.290766,0.14713 -0.08522,-0.10518 c -0.04687,-0.0579 -0.145978,-0.18037 -0.220236,-0.27228 -0.165183,-0.20443 -0.196178,-0.19915 -0.589357,0.1004 -0.163432,0.12452 -0.323861,0.22639 -0.35651,0.22639 -0.03265,0 -0.17603,-0.13159 -0.318625,-0.29243 -0.171495,-0.19344 -0.290109,-0.29243 -0.350383,-0.29243 -0.05509,0 -0.180838,0.0908 -0.318038,0.22977 -0.124803,0.12637 -0.260888,0.22977 -0.30241,0.22977 -0.04152,0 -0.227164,-0.0881 -0.412536,-0.19584 -0.260762,-0.15151 -0.352728,-0.18624 -0.406359,-0.15345 -0.03813,0.0233 -0.153917,0.16767 -0.257313,0.32081 -0.103396,0.15313 -0.206793,0.27801 -0.22977,0.2775 -0.02298,-5e-4 -0.148765,-0.0708 -0.27953,-0.1563 z m -9.472209,-1.11129 c -0.165596,-0.4249 -0.184652,-1.03258 -0.04535,-1.44624 0.100913,-0.29966 0.322575,-0.69055 0.46317,-0.81678 l 0.09067,-0.0814 -0.0274,0.16711 c -0.05417,0.33038 0.129899,0.90862 0.394618,1.23968 l 0.122736,0.15349 -0.205907,0.0684 c -0.25954,0.0862 -0.523072,0.33812 -0.649372,0.62074 l -0.09626,0.21539 z m 22.768876,-0.0329 c -0.11368,-0.3261 -0.38479,-0.58814 -0.72395,-0.69973 l -0.15616,-0.0514 0.12281,-0.15359 c 0.26314,-0.32909 0.44093,-0.89375 0.39324,-1.24887 l -0.0212,-0.15801 0.14119,0.15463 c 0.15118,0.16558 0.31492,0.47365 0.42373,0.79724 0.0869,0.25847 0.0876,0.83677 0.001,1.17269 -0.0829,0.32297 -0.12014,0.36144 -0.18094,0.18701 z m -11.520442,-0.70361 c -0.316319,-0.0651 -0.574785,-0.25305 -0.711399,-0.51724 -0.09376,-0.1813 -0.117764,-0.57018 -0.04145,-0.67142 0.06009,-0.0797 0.06676,-0.0776 0.238134,0.0773 0.23893,0.21586 0.474999,0.31605 0.747263,0.31716 0.213673,8.7e-4 0.235569,-0.009 0.424499,-0.19828 0.215464,-0.21547 0.279141,-0.39669 0.230497,-0.65598 -0.03852,-0.20535 -0.191679,-0.36833 -0.611222,-0.65043 -0.201045,-0.13519 -0.404929,-0.30111 -0.453075,-0.36873 -0.109392,-0.15362 -0.111755,-0.36224 -0.0061,-0.53558 0.142057,-0.23297 0.193303,-0.24393 1.086387,-0.23222 0.792777,0.0104 1.008863,0.0465 0.785599,0.13143 -0.05895,0.0224 -0.1175,0.0574 -0.130107,0.0778 -0.01261,0.0204 0.07886,0.14472 0.203267,0.27628 0.124403,0.13155 0.287986,0.36484 0.363518,0.51841 0.122642,0.24935 0.13733,0.31726 0.13733,0.63493 0,0.31319 -0.01591,0.3893 -0.133057,0.63659 -0.229585,0.48464 -0.774462,0.96578 -1.240453,1.09535 -0.288205,0.0801 -0.67715,0.10839 -0.889664,0.0646 z m 0.278799,-0.24776 c 0,-0.0216 -0.0188,-0.0509 -0.04178,-0.0651 -0.02298,-0.0142 -0.04178,0.003 -0.04178,0.0393 0,0.0358 0.0188,0.0651 0.04178,0.0651 0.02298,0 0.04178,-0.0177 0.04178,-0.0393 z m 0.452001,-0.12062 c 0.01021,-0.0694 -0.008,-0.0907 -0.07758,-0.0907 -0.06575,0 -0.08391,0.0183 -0.06557,0.0661 0.01395,0.0364 0.02536,0.0849 0.02536,0.10792 0,0.0805 0.104567,0.007 0.117791,-0.0833 z m 0.402491,-0.28752 c -0.05134,-0.0784 -0.07909,-0.0906 -0.122772,-0.0544 -0.04664,0.0387 -0.04072,0.0708 0.03413,0.18467 0.0835,0.12707 0.09308,0.13131 0.122773,0.0544 0.02063,-0.0534 0.0084,-0.11983 -0.03413,-0.18467 z m 0.382534,-0.2538 c -0.09276,-0.17937 -0.276171,-0.22758 -0.276171,-0.0726 0,0.0483 0.287553,0.22858 0.326847,0.20489 0.0074,-0.004 -0.01537,-0.064 -0.05068,-0.1323 z m 0.39225,-0.40833 c 0,-0.006 -0.06332,-0.0507 -0.140704,-0.0985 -0.142209,-0.0879 -0.402388,-0.11931 -0.402388,-0.0486 0,0.13551 0.05494,0.16562 0.295978,0.1622 0.135913,-0.002 0.247114,-0.009 0.247114,-0.0151 z m -0.08417,-0.47449 0.229156,-0.0243 -0.118509,-0.0929 c -0.216799,-0.16995 -0.611348,-0.17881 -0.611348,-0.0137 0,0.11252 0.120962,0.22265 0.203824,0.18558 0.03725,-0.0167 0.170842,-0.0412 0.296877,-0.0546 z m -0.451788,-0.48755 c 0.08154,-0.0422 0.202627,-0.0612 0.332161,-0.0522 0.112115,0.008 0.203834,-0.001 0.20382,-0.0195 -1.4e-5,-0.0185 -0.105292,-0.0818 -0.233951,-0.14074 -0.261322,-0.11963 -0.556027,-0.11886 -0.676663,0.002 -0.06075,0.0607 -0.05796,0.0755 0.03248,0.17175 0.115538,0.12299 0.168078,0.12897 0.342156,0.0389 z m -0.552975,-0.48588 c 0.137985,-0.067 0.268671,-0.0931 0.472513,-0.094 0.154976,-7.2e-4 0.281871,-0.0141 0.28199,-0.0296 1.25e-4,-0.0156 -0.10788,-0.0696 -0.239997,-0.12002 -0.314605,-0.1201 -0.782482,-0.12619 -0.976763,-0.0127 -0.184557,0.10779 -0.190867,0.16538 -0.02893,0.26411 0.176822,0.1078 0.256006,0.10655 0.491191,-0.008 z m -6.953556,-0.90153 c -0.421205,-0.14565 -0.80901,-0.43739 -0.758025,-0.57026 0.03494,-0.0911 0.459361,-0.085 0.6637,0.009 0.163782,0.0757 0.533522,0.4754 0.533522,0.57674 0,0.0805 -0.179252,0.074 -0.439197,-0.0159 z m 1.056015,-0.0606 c -0.223486,-0.23911 -0.407937,-0.47717 -0.407937,-0.5265 0,-0.0802 0.465164,-0.0588 0.56703,0.0261 0.110274,0.0919 0.519154,0.57081 0.519154,0.60807 0,0.0155 -0.124053,0.0281 -0.275673,0.0281 -0.257134,0 -0.284207,-0.009 -0.402574,-0.13578 z m 1.34603,0.0822 c -0.119512,-0.0961 -0.500677,-0.5587 -0.500677,-0.60767 0,-0.0332 0.104016,-0.049 0.323707,-0.049 h 0.323707 l 0.282049,0.30052 c 0.155127,0.16529 0.28205,0.32509 0.28205,0.3551 0,0.0728 -0.620412,0.0737 -0.710836,0.001 z m 1.420395,0 c -0.119512,-0.0961 -0.500678,-0.5587 -0.500678,-0.60767 0,-0.0609 0.887161,-0.069 0.999086,-0.009 0.07583,0.0406 0.546638,0.59493 0.546638,0.64364 0,0.0515 -0.978931,0.0263 -1.045046,-0.0269 z m 1.467111,-0.23403 c -0.369598,-0.41689 -0.365692,-0.42262 0.288132,-0.42262 0.450694,0 0.543092,0.0105 0.543092,0.0616 0,0.068 -0.484061,0.64861 -0.540745,0.64861 -0.01954,0 -0.15025,-0.12941 -0.290479,-0.28758 z m 1.207674,0.23536 c 2.5e-4,-0.0287 0.124007,-0.18852 0.275007,-0.3551 l 0.274544,-0.30288 h 0.497855 c 0.27382,0 0.497855,0.0153 0.497855,0.034 0,0.0566 -0.491079,0.62153 -0.564829,0.64983 -0.03776,0.0145 -0.273905,0.0263 -0.524772,0.0263 -0.337294,0 -0.456002,-0.0136 -0.45566,-0.0522 z m 1.741336,0.0255 c -0.02897,-0.029 0.117352,-0.22462 0.378333,-0.50591 l 0.164731,-0.17755 h 0.340628 c 0.187345,0 0.340628,0.0152 0.340628,0.0338 0,0.0422 -0.344442,0.45565 -0.485155,0.58237 -0.08806,0.0793 -0.151889,0.094 -0.408403,0.094 -0.167216,0 -0.31606,-0.012 -0.330762,-0.0267 z m 1.413215,-0.0136 c -0.0137,-0.0222 0.0946,-0.17727 0.2406,-0.34466 l 0.26551,-0.30433 0.27914,-0.0123 c 0.16446,-0.007 0.27915,0.005 0.27915,0.029 0,0.0596 -0.48847,0.61706 -0.56718,0.64727 -0.1053,0.0404 -0.46979,0.0295 -0.49722,-0.0149 z m 1.25131,-0.003 c -0.0148,-0.0239 0.0986,-0.18374 0.25194,-0.3551 l 0.27886,-0.31157 h 0.26779 c 0.14728,0 0.26779,0.0152 0.26779,0.0338 0,0.0422 -0.34445,0.45565 -0.48516,0.58237 -0.081,0.0729 -0.15481,0.094 -0.32935,0.094 -0.12373,0 -0.23708,-0.0196 -0.25187,-0.0435 z m 1.25324,-8e-5 c -0.0148,-0.024 -0.003,-0.0757 0.0266,-0.11488 0.12978,-0.17292 0.40179,-0.43805 0.50515,-0.4924 0.13299,-0.0699 0.64215,-0.0803 0.68317,-0.0139 0.0805,0.13029 -0.52854,0.5337 -0.93381,0.61849 -0.26798,0.0561 -0.2482,0.0559 -0.28106,0.003 z"
       id="path1980"
       sodipodi:insensitive="true" />
  </g>
</svg>
